<?xml version="1.0" standalone="no"?>
<!DOCTYPE svg PUBLIC "-//W3C//DTD SVG 20010904//EN"
 "http://www.w3.org/TR/2001/REC-SVG-20010904/DTD/svg10.dtd">
<svg version="1.0" xmlns="http://www.w3.org/2000/svg"
 width="566.000000pt" height="642.000000pt" viewBox="0 0 566.000000 642.000000"
 preserveAspectRatio="xMidYMid meet" style="background-image: linear-gradient(120deg, #84fab0 0%, #8fd3f4 100%);">
<circle  stroke="#F5F5F5" stroke-width="1" fill="#8fd3f4" />
<g transform="translate(0.000000,642.000000) scale(0.100000,-0.100000)"
fill="#000000" stroke="none">
<path d="M22 3213 l-2 -3213 2528 0 2528 0 52 88 c28 48 63 106 77 129 l25 41
-331 424 c-182 233 -340 432 -350 444 -11 11 -16 24 -12 27 3 4 1 7 -5 7 -7 0
-12 -2 -12 -5 0 -3 80 -108 178 -233 98 -125 221 -281 272 -347 52 -66 129
-164 171 -218 l78 -98 -73 -122 -73 -122 -2522 -3 -2521 -2 -3 3207 -2 3208
-3 -3212z"/>
<path d="M4676 6184 c-37 -130 -66 -237 -64 -239 2 -3 35 102 72 231 37 130
66 237 64 239 -2 3 -35 -102 -72 -231z"/>
<path d="M4591 5884 c0 -11 3 -14 6 -6 3 7 2 16 -1 19 -3 4 -6 -2 -5 -13z"/>
<path d="M4552 5751 c-18 -60 -32 -114 -32 -119 0 -6 157 -171 350 -369 l350
-358 0 -650 c0 -449 4 -655 11 -665 9 -12 10 -12 5 3 -3 10 -6 310 -6 665 l0
647 -51 55 c-28 30 -149 154 -267 275 -119 121 -254 259 -301 307 l-84 87 32
112 c18 61 30 113 28 115 -2 2 -18 -45 -35 -105z"/>
<path d="M2156 4694 c-22 -8 -41 -16 -43 -18 -2 -2 10 -41 27 -87 28 -78 29
-85 13 -96 -9 -7 -19 -13 -23 -13 -3 0 -21 42 -39 93 -19 50 -37 96 -41 100
-5 5 -36 -1 -69 -14 -48 -17 -61 -26 -56 -38 46 -114 65 -185 53 -192 -27 -17
-36 -7 -63 69 -15 42 -31 80 -35 85 -5 5 -69 -11 -108 -29 -5 -2 67 -187 77
-197 5 -5 20 -9 33 -9 31 0 366 122 384 139 8 8 14 25 14 38 0 35 -60 185 -73
184 -7 0 -30 -7 -51 -15z"/>
<path d="M3477 4683 c-4 -3 -7 -14 -7 -23 0 -11 34 -28 120 -59 66 -24 120
-47 120 -52 0 -4 -4 -18 -10 -31 -9 -22 -82 -221 -135 -368 -13 -36 -37 -103
-54 -148 -17 -46 -31 -85 -31 -87 0 -5 131 -48 134 -44 2 2 54 144 116 314 62
171 114 313 116 316 2 4 58 -14 125 -38 98 -37 123 -43 130 -32 19 30 22 28
-206 111 -60 22 -121 44 -135 48 -14 5 -81 29 -149 54 -143 53 -126 48 -134
39z"/>
<path d="M1565 4508 c-27 -11 -51 -21 -53 -23 -2 -2 8 -25 21 -52 l25 -48 -42
-16 c-30 -13 -40 -22 -38 -35 6 -32 -16 -37 260 63 42 16 49 26 34 51 -7 10
-15 10 -44 -2 l-35 -15 -25 47 c-14 26 -32 48 -39 49 -8 0 -36 -8 -64 -19z"/>
<path d="M2090 4346 c-160 -59 -226 -87 -228 -99 -6 -29 20 -28 104 2 l82 30
6 -37 c9 -58 8 -60 -31 -72 -59 -19 -83 -38 -83 -65 0 -13 25 -94 56 -178 l56
-155 47 15 c25 9 49 19 53 22 5 4 -17 74 -47 156 -30 83 -55 153 -55 158 0 4
6 7 14 7 9 0 30 -44 57 -117 23 -65 44 -119 45 -121 1 -2 18 3 37 11 l35 15
-43 119 c-27 72 -40 122 -34 128 14 14 23 -1 64 -118 20 -59 41 -109 45 -112
4 -3 22 0 39 6 36 13 38 2 -20 154 -23 61 -34 104 -28 110 6 6 12 6 18 0 16
-18 93 -245 88 -259 -3 -8 -19 -17 -36 -21 -34 -7 -38 -16 -16 -35 17 -14 66
-4 132 27 42 19 46 42 18 121 -55 163 -86 231 -107 238 -12 3 -49 -4 -89 -17
-37 -13 -70 -21 -72 -19 -2 3 -7 23 -10 45 l-7 41 89 33 c76 28 88 35 84 52
-3 10 -13 19 -22 18 -9 0 -117 -38 -241 -83z"/>
<path d="M4193 4403 c-29 -25 -117 -275 -109 -307 6 -26 31 -37 301 -134 61
-22 111 -46 113 -54 2 -13 -46 -156 -82 -242 -17 -40 -7 -41 -166 17 -52 19
-139 51 -193 70 l-98 36 3 -26 c3 -24 20 -32 258 -119 154 -57 264 -92 277
-89 12 3 27 13 32 23 15 29 111 293 111 306 0 26 -40 47 -201 106 -230 85
-219 80 -219 104 0 11 18 68 39 126 39 105 39 105 73 104 18 0 114 -31 213
-69 99 -37 189 -68 200 -69 13 -1 21 6 23 19 2 16 -8 24 -50 38 -29 10 -102
37 -163 59 -60 22 -141 51 -180 65 -38 13 -77 28 -85 32 -38 20 -77 22 -97 4z"/>
<path d="M1175 4367 l-60 -22 -9 -57 -9 -57 -80 -31 c-125 -48 -123 -48 -167
-5 l-39 38 -64 -23 c-71 -25 -74 -34 -27 -69 17 -12 30 -25 30 -30 0 -5 -36
-22 -80 -37 -70 -25 -79 -31 -74 -49 4 -11 8 -21 9 -23 1 -1 90 29 196 68 107
39 250 91 319 116 311 112 296 106 284 138 -5 13 -17 11 -87 -14 -44 -17 -82
-30 -83 -30 -1 0 0 25 3 55 3 30 4 55 2 54 -2 0 -31 -10 -64 -22z"/>
<path d="M1785 4310 c-11 -4 -32 -13 -47 -19 l-27 -10 19 -68 c10 -37 39 -144
65 -238 25 -93 48 -177 50 -186 4 -11 -16 -26 -70 -55 -75 -39 -82 -47 -66
-72 7 -11 22 -7 72 21 35 19 103 55 152 81 79 43 86 49 76 67 -7 14 -16 18
-27 14 -9 -4 -21 -7 -27 -8 -5 -1 -39 107 -75 240 -36 134 -67 243 -70 242 -3
0 -14 -4 -25 -9z"/>
<path d="M1573 4233 c-24 -8 -43 -18 -43 -23 0 -4 30 -74 66 -156 98 -221 113
-254 119 -254 5 0 88 32 93 36 2 1 -30 78 -71 170 -41 93 -82 186 -90 207 -18
42 -16 41 -74 20z"/>
<path d="M1335 4195 c-33 -13 -59 -27 -58 -32 1 -4 45 -126 97 -270 53 -144
96 -266 96 -271 0 -6 -22 -18 -50 -27 -53 -18 -59 -25 -35 -45 15 -13 68 1
168 43 58 24 65 45 39 118 -84 238 -186 509 -191 508 -3 0 -33 -11 -66 -24z"/>
<path d="M1183 4079 c-29 -11 -53 -24 -53 -28 0 -5 33 -100 74 -212 82 -227
76 -220 158 -185 l38 16 -36 98 c-20 53 -54 150 -77 215 -23 64 -44 117 -47
116 -3 0 -29 -9 -57 -20z"/>
<path d="M985 4050 c-11 -5 -78 -30 -148 -56 -143 -52 -162 -64 -152 -103 9
-39 187 -525 195 -534 5 -6 112 26 129 40 2 1 -11 41 -29 88 -17 48 -30 88
-29 89 2 2 30 13 61 24 l57 21 20 -55 c28 -72 27 -80 -11 -93 -30 -11 -30 -12
-14 -30 17 -19 19 -19 70 -1 90 30 116 48 116 75 0 21 -41 139 -167 483 -21
57 -51 73 -98 52z m-21 -138 c9 -23 16 -49 16 -56 0 -13 -77 -46 -106 -46 -11
0 -61 117 -53 125 2 2 27 12 54 23 58 22 64 19 89 -46z m65 -180 c12 -29 21
-57 21 -61 0 -5 -27 -18 -59 -29 l-59 -20 -25 66 -25 67 57 22 c31 12 59 18
63 15 4 -4 16 -31 27 -60z"/>
<path d="M5241 3565 c-1 -11 145 -470 159 -500 21 -45 -3 38 -80 271 -43 131
-79 235 -79 229z"/>
<path d="M1926 3193 c20 -54 51 -138 69 -188 18 -49 56 -152 83 -228 79 -215
77 -211 141 -215 87 -5 94 -1 118 70 12 35 67 191 122 348 56 157 101 291 101
298 0 7 -13 12 -34 12 l-34 0 -40 -117 c-91 -268 -173 -498 -181 -506 -6 -6
-66 147 -192 493 -52 144 -39 130 -119 130 l-70 0 36 -97z"/>
<path d="M2670 2827 c0 -176 3 -246 12 -255 9 -9 73 -12 225 -12 200 0 213 1
223 19 6 12 10 112 10 255 l0 236 -75 0 -75 0 0 -230 0 -231 -87 3 -88 3 -3
228 -2 227 -70 0 -70 0 0 -243z"/>
<path d="M3226 3054 c-14 -13 -16 -49 -16 -243 0 -163 3 -230 12 -239 17 -17
459 -17 476 0 33 33 15 37 -165 40 l-178 3 -3 88 -3 87 156 0 c198 0 195 -2
195 138 0 150 14 142 -245 142 -181 0 -216 -2 -229 -16z m322 -121 l3 -83
-101 0 -100 0 0 73 c0 45 5 78 12 85 9 9 40 12 98 10 l85 -3 3 -82z"/>
<path d="M5411 3035 c-1 -6 12 -49 28 -95 16 -47 30 -80 30 -75 1 6 -12 49
-28 95 -16 47 -30 80 -30 75z"/>
<path d="M5491 2785 c-1 -6 12 -49 28 -95 16 -47 30 -80 30 -75 1 6 -12 49
-28 95 -16 47 -30 80 -30 75z"/>
<path d="M5551 2595 c1 -19 18 -51 18 -35 0 8 -4 22 -9 30 -5 8 -9 11 -9 5z"/>
<path d="M5578 1943 c2 -476 0 -598 -10 -605 -10 -6 -8 -8 5 -8 16 0 17 34 16
588 0 323 -3 595 -7 604 -4 10 -6 -251 -4 -579z"/>
<path d="M5440 1315 c-36 -7 -54 -13 -40 -13 14 -1 54 5 90 12 36 8 54 14 40
14 -14 0 -54 -6 -90 -13z"/>
<path d="M5290 1290 c-34 -7 -34 -7 -5 -8 17 0 44 4 60 8 27 7 27 8 5 8 -14
-1 -41 -4 -60 -8z"/>
<path d="M5175 1270 c-27 -7 -27 -8 -5 -8 14 0 39 4 55 8 27 7 27 8 5 8 -14 0
-38 -4 -55 -8z"/>
<path d="M5093 1253 c9 -2 25 -2 35 0 9 3 1 5 -18 5 -19 0 -27 -2 -17 -5z"/>
<path d="M5038 1243 c6 -2 18 -2 25 0 6 3 1 5 -13 5 -14 0 -19 -2 -12 -5z"/>
<path d="M4973 1233 c9 -2 25 -2 35 0 9 3 1 5 -18 5 -19 0 -27 -2 -17 -5z"/>
<path d="M4875 1220 c-27 -7 -27 -8 -5 -8 14 0 39 4 55 8 27 7 27 8 5 8 -14 0
-38 -4 -55 -8z"/>
<path d="M4793 1203 c9 -2 25 -2 35 0 9 3 1 5 -18 5 -19 0 -27 -2 -17 -5z"/>
<path d="M4642 1183 c-51 -9 -91 -17 -88 -20 5 -5 208 26 215 33 7 6 -26 3
-127 -13z"/>
</g>
</svg>
